<?xml version="1.0" encoding="utf-8"?>
<!-- Generator: Adobe Illustrator 18.1.1, SVG Export Plug-In . SVG Version: 6.00 Build 0)  -->
<svg version="1.1" id="Layer_1" xmlns="http://www.w3.org/2000/svg" xmlns:xlink="http://www.w3.org/1999/xlink" x="0px" y="0px"
	 viewBox="0 0 467.6 534.7" enable-background="new 0 0 467.6 534.7" xml:space="preserve">
<g>
	<polygon fill="#FFFFFF" points="233.8,0 0,135 0,404.9 179.5,508.5 179.5,503.9 4,402.6 4,137.3 233.8,4.6 463.6,137.3 
		463.6,402.6 289.5,503.1 289.5,507.8 467.6,404.9 467.6,135 	"/>
</g>
<g>
	<path fill="#FFFFFF" d="M241.9,516.1c1.1-1.6,2.5-2.4,4.2-2.4c1.9,0,3.3,0.8,4.1,2.3s1.3,3.6,1.3,6.1c0,3-0.5,5.3-1.5,7
		c-1,1.7-2.4,2.5-4.2,2.5c-1.2,0-2.2-0.4-3.1-1.1s-1.5-1.7-1.9-3c-0.4-1.3-0.6-2.8-0.6-4.5C240.3,520,240.8,517.7,241.9,516.1z
		 M238.3,530.3c1.9,2,4.4,3,7.3,3c2,0,3.9-0.5,5.6-1.5s3-2.4,3.9-4.2c0.9-1.8,1.3-3.5,1.3-5.3c0-1.8-0.4-3.6-1.2-5.2
		c-0.8-1.6-2-2.8-3.6-3.7s-3.3-1.2-5.3-1.2c-3.2,0-5.7,1.1-7.8,3.2c-2,2.1-3,4.6-3,7.4C235.4,525.9,236.3,528.4,238.3,530.3z
		 M214.9,491.8c1-1.6,2.5-2.5,4.3-2.5c1.8,0,3.2,0.8,4,2.3s1.3,3.6,1.3,6.2c0,2.9-0.5,5.2-1.5,6.9c-1,1.7-2.4,2.6-4.2,2.6
		c-1.6,0-3-0.7-4-2c-1-1.3-1.5-3.5-1.5-6.6C213.4,495.8,213.9,493.5,214.9,491.8z M211.4,505.9c2,2,4.4,3,7.2,3c2,0,3.8-0.5,5.5-1.5
		c1.7-1,3-2.4,3.9-4.1c0.9-1.8,1.3-3.6,1.3-5.3c0-1.8-0.4-3.6-1.3-5.2s-2-2.8-3.6-3.7c-1.6-0.8-3.3-1.2-5.3-1.2
		c-3.2,0-5.7,1.1-7.8,3.2c-2,2.1-3.1,4.6-3.1,7.4C208.5,501.5,209.4,503.9,211.4,505.9z M246,486.5h-2.3l-0.3,0.2l-24.6,47.7
		l0.2,0.3h2.2l0.4-0.2l24.6-47.7L246,486.5z"/>
</g>
</svg>
