<?xml version="1.0" encoding="utf-8"?>
<!-- Generator: Adobe Illustrator 18.1.1, SVG Export Plug-In . SVG Version: 6.00 Build 0)  -->
<svg version="1.1" xmlns="http://www.w3.org/2000/svg" xmlns:xlink="http://www.w3.org/1999/xlink" x="0px" y="0px"
	 viewBox="0 0 443.9 233.1" enable-background="new 0 0 443.9 233.1" xml:space="preserve">
<g id="Layer_1">
</g>
<g id="Layer_2">
	<g>
		<path fill="#FFFFFF" d="M183.2,123.4l32,32.3c0,0-60.9,61.2-66.5,65.9c-5.6,4.6-19.8,12.4-32.4,11.4c-12.6-0.9-21.4-3.3-31.7-11.1
			c-6.5-4.9-72-72.1-74-74.1c-1.4-1.4-9.5-11.1-10.5-28.3C-0.7,106.7,5.2,94,6.8,90.5C9.9,83.8,27.9,66.2,46,48.4
			c18.9-18.6,38-37.3,45.8-42.1c8.5-5.2,19.3-6.3,22.5-6.3c15.7,0,21.4,3,27,6.4c5.5,3.4,16.1,13.6,26.4,23.9s63.9,63.5,82.1,81.7
			s54.1,54.1,57.1,56.9c3,2.9,11.6,9.4,21.3,8.9c5.4-0.3,9.3,1.3,19.8-9.2c5.4-5.4,31-30.1,33-32.1c3.2-3.2,6.1-6.4,7.5-10.6
			c1.4-4.2,1.8-5.4,1.9-8.7s0.1-7.3-1.5-11.2c-1.6-3.8-3.9-7.1-6.9-10.3s-33.1-34.1-37.6-37.2c-4.5-3.1-8.2-5.4-17-5.3
			c-8.7,0.1-14.9,4.1-18.7,7.8c-3.7,3.7-47.6,47.4-47.6,47.4l-31.9-32.1L278,28.3c0,0,11.8-12.2,15.6-15.7c4.7-4.2,14-9.6,19.9-11.1
			s20.9-2.2,27.8-0.4c5.8,1.5,14,5.2,20.3,10.9c4.2,3.8,25,25.2,30.2,30.3c5.2,5.1,35.2,34.6,38.8,38.8c3.7,4.2,11.6,15.7,12.9,25.3
			c1.2,9.6,0.6,24.7-4.6,32.8c-5.3,8.1-13.9,17.3-18.8,21.9s-46.5,46.8-52.4,52.6s-19.9,18.7-37.8,18.5
			c-17.9-0.3-28.4-7.1-33.7-11.8c-5.4-4.7-35.6-35.3-43.4-43.4c-7.8-8-110.8-110-116.3-115.3c-5.4-5.3-13.7-7.9-19.7-7.9
			s-12.6,2.1-18.3,7c-5.7,4.8-37.4,37.7-40.3,40.8c-2.9,3.1-4,8.7-4.1,14.2c-0.1,5.5,2,13.3,4.6,16.6c2.7,3.3,39.6,40.4,42.1,42.2
			c2.5,1.8,10.4,5.2,16.3,4.8c5.9-0.4,8.9-1.2,12.3-3c3.4-1.9,7.3-5.4,14.5-12.4C150.9,156.8,183.2,123.4,183.2,123.4z"/>
	</g>
</g>
</svg>
